<svg width="800" height="800" version="1.1" viewBox="0 0 800 800" xmlns="http://www.w3.org/2000/svg">
 <g fill="#800080" stroke-width="1.5147">
  <path d="m265.07 775.03c-0.42988-0.31797-9.082-1.5488-19.227-2.7353-10.145-1.1864-19.238-2.5822-20.207-3.1017-0.96868-0.51948-5.3278-1.683-9.6869-2.5856-10.432-2.1601-32.078-9.7908-43.333-15.276-4.9437-2.4095-9.4194-4.3808-9.9461-4.3808-2.4078 0-37.921-25.166-44.47-31.512-8.5357-8.2724-11.448-11.501-11.448-12.69 0-0.76426-0.64463-1.3896-1.4325-1.3896s-2.521-2.0516-3.8512-4.5592c-1.3303-2.5075-2.9774-4.5592-3.6603-4.5592-0.68286 0-1.7866-1.6061-2.4528-3.5692-0.66615-1.963-1.7428-3.8681-2.3925-4.2335-0.64973-0.3654-6.2778-8.1382-12.507-17.273-6.229-9.1346-11.975-16.608-12.769-16.608s-1.4436-0.72432-1.4436-1.6096c0-2.0463-9.2469-15.831-11.008-16.41-0.72652-0.23883-1.3209-1.1615-1.3209-2.0503 0-0.88886-3.0731-5.9691-6.8292-11.289-3.7561-5.3203-10.295-14.656-14.53-20.746-4.2356-6.0898-8.1887-11.365-8.7846-11.724-0.59595-0.35823-1.6804-2.1168-2.4099-3.9079-0.72947-1.7911-2.3277-4.1358-3.5516-5.2105-1.2239-1.0747-2.8221-3.4194-3.5516-5.2105-0.72947-1.7911-1.8139-3.5497-2.4099-3.9079-2.0618-1.2393-9.0187-12.383-8.9456-14.329 0.040319-1.0747 4.2035-3.3844 9.2514-5.1326 5.048-1.7483 13.537-5.054 18.865-7.3461 5.3278-2.2921 12.461-4.5594 15.851-5.0386 3.3904-0.47916 7.9476-1.5223 10.127-2.3181 2.8203-1.0297 5.1053-1.0492 7.9256-0.0676 2.1795 0.75862 7.4064 2.0702 11.615 2.9147 10.09 2.0244 21.377 10.453 27.75 20.722 2.7272 4.3944 5.5862 7.9899 6.3534 7.9899s1.3948 0.72431 1.3948 1.6096c0 1.5547 8.723 15.303 10.55 16.627 0.49414 0.35822 4.8612 6.5131 9.7047 13.678 4.8434 7.1644 9.3378 13.325 9.9875 13.691 0.64973 0.3654 1.7264 2.2705 2.3925 4.2335 0.66615 1.9631 1.7586 3.5692 2.4277 3.5692 0.66907 0 2.28 2.1982 3.5798 4.8848 1.2998 2.6867 2.854 5.1779 3.4538 5.5362 0.5998 0.35821 3.4292 4.1684 6.2874 8.467 2.8583 4.2987 7.3158 10.511 9.9056 13.805 2.5898 3.294 5.3035 7.3973 6.0304 9.1184 0.72701 1.721 1.8168 3.4223 2.4218 3.7805 0.60501 0.35821 3.2958 3.1565 5.9796 6.2183 5.5395 6.32 24.346 20.299 31.101 23.117 2.4725 1.0316 6.675 2.6021 9.3389 3.4899 2.6639 0.88783 4.8434 2.0134 4.8434 2.5014 0 0.48791 4.1609 1.6169 9.2465 2.5088 5.0856 0.89192 9.8116 2.2693 10.502 3.0608 1.7616 2.0188 59.267 1.956 64.956-0.071 2.331-0.83059 5.6252-1.838 7.3204-2.2387 4.5325-1.0714 3.7568-3.3226-1.7612-5.1114-5.5743-1.807-12.288-5.0061-22.831-10.879-11.057-6.1595-44.537-31.663-44.537-33.927 0-0.35306-1.5-2.2-3.3334-4.1043-1.8334-1.9043-6.8964-8.4428-11.251-14.53-4.3547-6.0871-9.3933-13.119-11.197-15.627-1.8036-2.5075-3.8736-4.7546-4.6002-4.9934-0.72652-0.23882-1.3209-1.1097-1.3209-1.9352 0-1.7344-9.0615-15.541-10.85-16.532-0.65953-0.36541-1.746-2.276-2.4145-4.2458-0.66845-1.9698-1.7794-3.8393-2.4688-4.1544-0.68937-0.31512-5.1381-6.3179-9.886-13.34-4.7479-7.0217-9.2032-12.951-9.9005-13.176-0.69741-0.22538-2.22-2.5701-3.3835-5.2105-1.1635-2.6404-2.6156-5.0938-3.2267-5.452-0.61117-0.35821-4.6028-5.9269-8.8704-12.375s-8.2099-12.017-8.7607-12.375c-1.7969-1.1685-17.782-25.36-17.757-26.874 0.013-0.81015 4.5812-3.1489 10.151-5.1973 5.5699-2.0484 10.523-4.0234 11.008-4.3888 1.6973-1.2808 20.627-7.8289 22.632-7.8289 1.1141 0 2.0256-0.58616 2.0256-1.3026 0-0.74435 5.2837-1.3026 12.329-1.3026 6.7808 0 12.329 0.53961 12.329 1.1991 0 0.65952 2.3365 1.5787 5.1923 2.0426 5.5216 0.89696 19.465 9.4816 19.465 11.984 0 0.82016 0.59442 1.6866 1.3209 1.9254 0.72651 0.23882 3.6986 4.0965 6.6047 8.5726 2.9061 4.4761 5.8167 8.1398 6.4681 8.1414 0.65138 1e-3 2.1532 2.2012 3.3374 4.8878 1.1842 2.6867 2.6555 5.1779 3.2697 5.5362 0.6141 0.35822 6.4631 8.5648 12.998 18.237 14.9 22.054 21.662 31.477 24.031 33.488 1.0194 0.86533 1.8535 2.0293 1.8535 2.5866 0 1.3051 9.3017 15.173 10.753 16.031 0.60575 0.35822 1.711 2.0941 2.4562 3.8575 4.0812 9.6582 24.536 29.455 39.083 37.826 8.5361 4.9122 14.16 7.5273 18.192 8.4595 2.403 0.55548 4.7654 1.3706 5.2497 1.8114 1.5227 1.3857 18.202 5.2448 19.703 4.5586 0.7874-0.35992 1.4317-1.7433 1.4317-3.0742 0-1.3309 0.9907-2.664 2.2016-2.9624 2.9682-0.73148 3.1793-44.901 0.22125-46.29-1.0892-0.51151-2.5468-2.8611-3.2393-5.2214-1.2267-4.1812-19.858-32.838-22.194-34.136-0.64447-0.3582-1.762-2.0487-2.4833-3.7567-0.72134-1.708-3.8993-6.3974-7.0621-10.421-3.1628-4.0236-6.2993-8.6345-6.9701-10.247-0.67078-1.612-1.8958-2.9309-2.7222-2.9309-0.82644 0-2.0249-1.7585-2.6631-3.9079-0.63827-2.1493-1.7632-3.9079-2.4999-3.9079-0.73666 0-2.3857-2.3447-3.6645-5.2105-1.2788-2.8658-2.9048-5.2105-3.6135-5.2105-0.70863 0-1.7664-1.4086-2.3506-3.1302-0.58421-1.7216-4.2367-7.2024-8.1166-12.18-3.8799-4.9772-7.0543-9.7236-7.0543-10.547 0-0.82387-0.70664-1.4979-1.5703-1.4979-0.86367 0-2.1154-1.6061-2.7815-3.5692-0.66615-1.963-1.7428-3.8681-2.3925-4.2335-1.0666-0.59986-4.945-6.0808-29.045-41.046-3.9505-5.7315-7.8174-10.616-8.5931-10.855-0.77571-0.23881-1.4104-1.1097-1.4104-1.9352 0-1.4839-8.8052-15.26-10.558-16.519-0.49883-0.35824-3.2808-4.3136-6.1822-8.7897-2.9014-4.4761-5.7428-8.1398-6.3142-8.1414-0.57148-1e-3 -2.0853-2.3477-3.3641-5.2135-1.2788-2.8658-2.9908-5.2105-3.8044-5.2105s-1.4793-0.67415-1.4793-1.4981c0-1.4668-8.8304-15.454-10.568-16.739-0.48433-0.35823-4.8434-6.5131-9.6869-13.678-4.8434-7.1644-9.2938-13.319-9.8898-13.678-0.59595-0.3582-1.6935-2.1168-2.439-3.9079s-1.8601-3.5496-2.477-3.9079c-0.61686-0.35823-6.239-8.2717-12.494-17.585-6.2547-9.3138-11.902-17.227-12.549-17.585-0.64719-0.35823-2.1288-3.2891-3.2924-6.5131-1.1637-3.224-2.796-6.4771-3.6275-7.229-0.83149-0.75199-2.0441-3.8294-2.6948-6.8388-0.65063-3.0093-1.7472-5.4715-2.4368-5.4715-1.9577 0-5.3415-23.287-5.336-36.723 5e-3 -13.332 3.0672-34.825 5.2531-36.875 0.76377-0.71644 1.9435-3.7908 2.6217-6.832 0.67816-3.0411 1.8479-5.8104 2.5994-6.1539 0.75151-0.3435 2.4072-3.424 3.6792-6.8456 1.272-3.4216 2.7677-6.5141 3.3238-6.8723 0.55604-0.35823 3.3887-4.1684 6.2947-8.4671 2.9061-4.2986 5.7074-8.1088 6.2253-8.467 0.51783-0.35822 3.9251-4.018 7.5717-8.1328 7.333-8.2745 40.075-33.551 43.46-33.551 2.3817 0 0.87171 11.278-1.8364 13.716-0.81942 0.7376-2.4101 6.5994-3.5348 13.026-1.1248 6.4268-2.7578 12.703-3.6291 13.947-2.2092 3.1545-2.0468 48.826 0.17727 49.843 0.96867 0.44279 1.7612 2.9206 1.7612 5.5063 0 5.9971 3.5369 21.443 5.3013 23.151 0.74 0.71644 1.901 3.7939 2.58 6.8388 0.67901 3.0449 1.8313 5.5362 2.5608 5.5362 0.72938 0 2.3017 3.224 3.494 7.1644s2.9036 7.1644 3.8028 7.1644c0.89921 0 1.6349 0.62373 1.6349 1.3861s1.9814 4.5899 4.4031 8.5057 4.4031 7.6395 4.4031 8.275c0 0.6355 0.59442 1.3508 1.3209 1.5897 0.72652 0.23881 3.6986 4.0965 6.6047 8.5726 2.9061 4.4761 5.7513 8.1398 6.3228 8.1414 0.57148 1e-3 2.0853 2.3477 3.3641 5.2135 1.2788 2.8658 2.9048 5.2105 3.6134 5.2105 0.70863 0 1.8335 1.6061 2.4996 3.5692 0.66616 1.963 1.7428 3.8681 2.3925 4.2335 1.0666 0.59986 4.945 6.0808 29.045 41.046 3.9505 5.7315 7.8174 10.616 8.5931 10.855 0.7757 0.23882 1.4104 1.1097 1.4104 1.9352 0 1.4762 8.7941 15.246 10.55 16.519 0.49416 0.35823 3.2762 4.1684 6.1822 8.4671 2.9061 4.2987 5.7665 8.1088 6.3565 8.467 0.59 0.35822 2.1362 2.8495 3.436 5.5362 1.2998 2.6867 2.9966 4.8848 3.7707 4.8848s1.4074 0.67416 1.4074 1.4981c0 1.4668 8.8303 15.454 10.567 16.739 0.48434 0.35821 3.1988 4.1684 6.0322 8.467 2.8334 4.2987 5.6524 8.1088 6.2644 8.4671 0.61202 0.35821 2.2116 2.7029 3.5546 5.2105 1.343 2.5076 2.8832 4.8523 3.4225 5.2105 0.53932 0.35822 7.0247 9.444 14.412 20.191 21.24 30.898 27.001 39.032 28.143 39.73 0.58615 0.35822 2.0346 2.8495 3.2188 5.5362 1.1842 2.6867 2.7982 4.8848 3.5868 4.8848 0.78857 0 1.9788 1.6061 2.6449 3.5692 0.66617 1.963 1.7428 3.8681 2.3925 4.2335 0.64974 0.3654 3.8718 4.6389 7.1602 9.4967 3.2884 4.8578 6.569 9.1021 7.2902 9.4317 0.72123 0.32968 1.8582 2.2111 2.5267 4.1809 0.66846 1.9698 1.747 3.8804 2.3967 4.2458 1.3529 0.76087 6.6983 11.205 9.6735 18.901 1.1079 2.8658 2.5201 5.5036 3.1382 5.8618 0.61807 0.35821 2.0296 5.9269 3.1368 12.375 1.1072 6.448 2.9216 15.679 4.0321 20.514 1.4861 6.4704 1.5076 10.596 0.0813 15.631-1.0658 3.7625-2.8155 12.392-3.8882 19.177-1.0727 6.785-2.5909 12.647-3.3738 13.026-0.78291 0.37946-1.9637 2.8633-2.624 5.5198-0.66027 2.6564-2.3548 6.4666-3.7657 8.467-1.4108 2.0005-2.5701 4.1013-2.576 4.6685-0.0271 2.5822-12.905 20.63-17.183 24.082-1.2109 0.97699-2.2016 2.231-2.2016 2.7866 0 0.55564-1.387 2.2298-3.0822 3.7204-1.6952 1.4906-5.4599 4.9365-8.3659 7.6576-5.9536 5.5746-24.637 19.295-31.657 23.248-2.5448 1.4329-6.2932 3.6311-8.3299 4.8848-2.0367 1.2538-4.3177 2.2796-5.069 2.2796-0.75129 0-2.4467 0.73273-3.7677 1.6283-3.8432 2.6055-8.8172 4.8202-15.903 7.0808-3.6326 1.1589-6.6047 2.5778-6.6047 3.1531 0 0.57531-2.774 1.4309-6.1644 1.9013-3.3904 0.47042-6.1644 1.3178-6.1644 1.883 0 0.56524-4.1609 1.7629-9.2466 2.6615-5.0856 0.8986-10.435 2.1162-11.888 2.7057-8.0659 3.2726-70.93 8.1575-74.167 5.7632z"/>
  <path d="m549.67 680.85c0.68496-3.4031 1.9083-6.7843 2.7186-7.5137 0.81024-0.72944 2.3781-6.5912 3.4843-13.026 1.1061-6.435 2.7467-12.718 3.6458-13.962 2.114-2.9252 2.1383-47.216 0.0275-50.186-0.88394-1.2441-2.5048-7.8024-3.6019-14.574-1.0971-6.7717-2.662-12.927-3.4774-13.678-0.81552-0.75096-2.0383-3.8566-2.7173-6.9015-0.67903-3.0449-1.8314-5.5362-2.5608-5.5362-0.72938 0-2.3017-3.224-3.494-7.1644-1.1923-3.9404-2.9036-7.1644-3.8028-7.1644-0.89916 0-1.6349-0.65942-1.6349-1.4654 0-1.5976-8.9562-17.017-10.498-18.074-0.52257-0.35821-4.9129-6.5131-9.7563-13.678-4.8434-7.1644-9.2938-13.319-9.8898-13.678-0.59596-0.35824-1.6935-2.1168-2.439-3.9079-0.74547-1.7911-1.843-3.5496-2.4389-3.9079-0.97813-0.58794-4.989-6.2734-28.947-41.033-3.9505-5.7315-7.8174-10.616-8.5931-10.855-0.7757-0.2388-1.4104-1.1097-1.4104-1.9352 0-1.4762-8.7941-15.246-10.55-16.519-0.49414-0.35823-4.8612-6.5131-9.7047-13.678-4.8434-7.1644-9.4007-13.222-10.127-13.46-0.72652-0.23883-1.3209-1.0595-1.3209-1.8238 0-1.3886-8.9027-15.399-10.567-16.63-0.48434-0.35822-4.8434-6.5131-9.6868-13.678-4.8434-7.1644-9.2025-13.319-9.6869-13.678-0.48434-0.35824-6.9248-9.444-14.312-20.191-21.24-30.898-27.001-39.032-28.143-39.73-0.58615-0.35823-2.0346-2.8495-3.2188-5.5362-1.1842-2.6867-2.7982-4.8848-3.5868-4.8848s-1.9788-1.6061-2.6449-3.5692c-0.66615-1.963-1.7428-3.8681-2.3925-4.2335s-3.8718-4.6389-7.1602-9.4967c-3.2884-4.8578-6.569-9.1021-7.2902-9.4317-0.72121-0.32966-1.8582-2.2111-2.5267-4.1809-0.66846-1.9698-1.747-3.8804-2.3967-4.2458-1.3529-0.76087-6.6982-11.205-9.6734-18.901-1.1079-2.8658-2.5586-5.5089-3.2236-5.8737-0.6651-0.36477-2.1277-6.8128-3.2502-14.329-1.1225-7.5161-2.7716-15.785-3.6646-18.376-2.0654-5.9915-2.0495-10.135 0.0655-17.09 0.929-3.0552 2.5498-11.095 3.6019-17.867 1.052-6.7717 2.5781-12.927 3.3913-13.678 0.81316-0.75096 2.041-3.3099 2.7285-5.6866 0.6875-2.3767 2.3599-5.8938 3.7164-7.8158 1.3565-1.922 2.9551-5.3996 3.5525-7.728 0.59737-2.3284 1.713-4.2335 2.4791-4.2335 0.76613 0 2.2249-1.612 3.2418-3.5822 2.1478-4.1614 7.2167-10.546 10.384-13.08 1.2109-0.96852 2.2016-2.2156 2.2016-2.7712 0-0.55564 1.387-2.2299 3.0822-3.7204 1.6952-1.4906 5.4599-4.9365 8.3659-7.6576 5.9536-5.5747 24.637-19.295 31.657-23.248 2.5448-1.4329 6.2932-3.631 8.3299-4.8848 2.0367-1.2538 4.3177-2.2796 5.069-2.2796 0.75126 0 2.4467-0.73272 3.7677-1.6283 3.8432-2.6055 8.8172-4.8202 15.903-7.0808 3.6326-1.1589 6.6047-2.5578 6.6047-3.1087s2.5642-1.4181 5.6982-1.9272c3.134-0.5091 7.295-1.6705 9.2465-2.5809 1.9516-0.91038 6.3223-2.0735 9.7127-2.5848 3.3904-0.51128 6.9569-1.3922 7.9256-1.9576 3.5508-2.0726 41.007-5.7741 58.121-5.7437 16.875 0.03003 52.636 3.6122 56.346 5.6444 0.97613 0.53465 5.2429 1.7065 9.4817 2.6042 10.429 2.2086 32.564 9.9912 43.552 15.313 4.9437 2.3943 9.4194 4.3534 9.9461 4.3534 2.4388 0 38.222 25.335 44.47 31.486 9.5076 9.3588 11.448 11.514 11.448 12.717 0 0.76424 0.64465 1.3895 1.4325 1.3895 0.7879 0 2.521 2.0516 3.8512 4.5592 1.3303 2.5075 2.9774 4.5592 3.6603 4.5592s1.7866 1.6061 2.4528 3.5692c0.66616 1.963 1.7428 3.8681 2.3925 4.2335s6.2778 8.1382 12.507 17.273c6.229 9.1346 11.975 16.608 12.769 16.608 0.79396 0 1.4436 0.72431 1.4436 1.6096 0 2.0463 9.2468 15.831 11.008 16.41 0.72653 0.23883 1.321 1.1097 1.321 1.9352 0 1.4762 8.7941 15.246 10.55 16.519 0.49416 0.35821 4.8613 6.5131 9.7047 13.678 4.8434 7.1644 9.2938 13.319 9.8898 13.678 0.59597 0.35823 1.6804 2.1168 2.4099 3.9079 0.72947 1.7911 2.3277 4.1358 3.5516 5.2105 1.2239 1.0747 2.8221 3.4194 3.5516 5.2105 0.72948 1.7911 1.8139 3.5497 2.4099 3.9079 2.0618 1.2393 9.0187 12.383 8.9457 14.329-0.0403 1.0747-4.2035 3.3844-9.2515 5.1326-5.048 1.7483-13.537 5.054-18.865 7.3461-5.3278 2.2921-12.461 4.5594-15.851 5.0386-3.3904 0.47917-7.9476 1.5223-10.127 2.3181-2.8203 1.0297-5.1053 1.0492-7.9256 0.0676-2.1795-0.75863-7.4064-2.0702-11.615-2.9147-10.09-2.0244-21.377-10.453-27.75-20.722-2.7272-4.3944-5.5862-7.9899-6.3534-7.9899-0.7671 0-1.3948-0.7243-1.3948-1.6096 0-1.5547-8.723-15.303-10.55-16.627-0.49416-0.3582-4.8613-6.5131-9.7047-13.678-4.8434-7.1644-9.3378-13.325-9.9875-13.691-0.6497-0.3654-1.7263-2.2705-2.3925-4.2335-0.66615-1.963-1.7586-3.5692-2.4277-3.5692-0.66907 0-2.28-2.1982-3.5798-4.8848-1.2998-2.6867-2.8712-5.1779-3.492-5.5362-0.62079-0.35822-3.6904-4.4615-6.8213-9.1184-3.1309-4.6569-8.059-11.691-10.951-15.631-2.8924-3.9404-5.259-7.8972-5.2592-8.7927-2.2e-4 -0.89556-0.66575-1.6283-1.479-1.6283s-2.3528-1.4191-3.4213-3.1535c-2.3688-3.8452-8.9682-9.5898-20.638-17.965-8.7817-6.3025-13.284-8.6496-22.456-11.706-2.6639-0.88782-4.8434-2.0134-4.8434-2.5013 0-0.48792-4.1609-1.6169-9.2466-2.5088-5.0856-0.89191-9.8116-2.2693-10.502-3.0608-1.7616-2.0188-59.267-1.956-64.956 0.07096-2.331 0.8306-5.6252 1.838-7.3204 2.2387-4.5358 1.0721-3.7555 3.3241 1.7695 5.1067 10.566 3.4091 26.617 12.527 41.764 23.725 15.461 11.43 25.595 19.778 25.595 21.086 0 0.35306 1.5 2.2 3.3334 4.1043 1.8334 1.9043 6.8964 8.4428 11.251 14.53 4.3547 6.0872 9.3933 13.119 11.197 15.627 1.8036 2.5076 3.8736 4.7546 4.6001 4.9934 0.72652 0.23882 1.3209 1.1097 1.3209 1.9352 0 1.7344 9.0615 15.541 10.85 16.532 0.65951 0.36539 1.746 2.276 2.4145 4.2458 0.66843 1.9698 1.7794 3.8393 2.4688 4.1544 0.68937 0.31512 5.1381 6.3179 9.886 13.34 4.7479 7.0217 9.2032 12.951 9.9005 13.176 0.69741 0.22538 2.22 2.5701 3.3835 5.2105 1.1635 2.6404 2.6156 5.0938 3.2267 5.452s4.6029 5.9269 8.8704 12.375c4.2675 6.448 8.2099 12.017 8.7607 12.375 1.7969 1.1685 17.782 25.36 17.757 26.874-0.013 0.81014-4.5812 3.1489-10.151 5.1973-5.5699 2.0484-10.523 4.0234-11.008 4.3888-1.6973 1.2808-20.627 7.8289-22.632 7.8289-1.1141 0-2.0256 0.58617-2.0256 1.3026 0 0.74436-5.2837 1.3026-12.329 1.3026-6.7808 0-12.329-0.53961-12.329-1.1991s-2.3366-1.5787-5.1923-2.0426c-5.5216-0.89695-19.465-9.4816-19.465-11.984 0-0.82016-0.59442-1.6866-1.3209-1.9254-0.72652-0.23882-3.6185-3.9513-6.4267-8.25-2.8082-4.2986-6.0828-8.695-7.277-9.7697-1.1942-1.0747-2.7681-3.4194-3.4976-5.2105-0.72947-1.7911-1.8139-3.5496-2.4099-3.9079-0.59595-0.35821-6.4415-8.5648-12.99-18.237-14.762-21.803-21.707-31.451-24.107-33.488-1.0194-0.86533-1.8535-2.0293-1.8535-2.5866 0-1.3051-9.3017-15.173-10.753-16.031-0.60577-0.35821-1.711-2.0941-2.4562-3.8575-6.433-15.224-40.047-42.308-57.516-46.342-2.2704-0.52441-4.5244-1.3574-5.0087-1.8511-1.356-1.3822-18.16-5.1676-19.738-4.4464-0.76817 0.35111-1.3966 1.6589-1.3966 2.9062 0 1.2473-0.99072 3.0006-2.2016 3.8961-2.9456 2.1786-3.1496 44.135-0.22127 45.509 1.0892 0.51119 2.5469 2.8606 3.2393 5.2209 1.2267 4.1812 19.858 32.838 22.194 34.136 0.64449 0.35822 1.762 2.0487 2.4833 3.7567 0.72137 1.708 3.8993 6.3974 7.0621 10.421 3.1628 4.0236 6.2994 8.6345 6.9701 10.247 0.67078 1.612 1.8958 2.9309 2.7222 2.9309 0.82643 0 2.0248 1.7586 2.6631 3.9079 0.63828 2.1493 1.7632 3.9079 2.4999 3.9079 0.73665 0 2.3857 2.3447 3.6644 5.2105 1.2788 2.8658 2.9048 5.2105 3.6134 5.2105 0.70864 0 1.8335 1.6061 2.4996 3.5692 0.66617 1.963 1.7428 3.8681 2.3925 4.2335 0.64973 0.3654 3.9279 4.7676 7.2848 9.7827 3.3569 5.0151 6.6185 9.4115 7.2479 9.7697 0.62943 0.35822 1.7543 2.1168 2.4998 3.9079 0.74547 1.7911 1.843 3.5496 2.4389 3.9079 0.97813 0.58795 4.989 6.2734 28.947 41.033 3.9505 5.7315 7.8174 10.616 8.5931 10.855 0.7757 0.23882 1.4104 1.1097 1.4104 1.9352 0 1.4838 8.8052 15.26 10.558 16.519 0.49883 0.35822 3.2808 4.3136 6.1822 8.7897 2.9014 4.4761 5.7428 8.1398 6.3142 8.1414 0.57149 1e-3 2.0853 2.3477 3.3641 5.2135 1.2788 2.8658 2.9278 5.2105 3.6644 5.2105 0.73668 0 1.8616 1.7585 2.4999 3.9079 0.63828 2.1493 1.7309 3.9079 2.428 3.9079 0.69711 0 2.3309 2.1982 3.6307 4.8848 1.2998 2.6867 2.846 5.1779 3.436 5.5362 0.59 0.35823 3.4016 4.1684 6.2481 8.4671 2.8464 4.2986 7.312 10.511 9.9234 13.805 2.6114 3.294 5.3428 7.3973 6.0698 9.1184 0.72701 1.721 1.8182 3.4223 2.4249 3.7805 0.60674 0.35823 6.246 8.2717 12.532 17.585 6.2857 9.3138 11.941 17.227 12.567 17.585 0.62626 0.35824 2.0907 3.2891 3.2544 6.5131 1.1637 3.224 2.796 6.4771 3.6275 7.229 0.83149 0.75199 2.0441 3.8294 2.6948 6.8388 0.65063 3.0093 1.7472 5.4715 2.4368 5.4715 1.9577 0 5.3415 23.287 5.336 36.723-5e-3 13.237-3.0594 34.801-5.2226 36.875-0.74698 0.71645-1.8874 3.476-2.5343 6.1324-0.64686 2.6564-2.331 6.4666-3.7426 8.467-1.4116 2.0005-3.0553 5.5423-3.6527 7.8708-0.59739 2.3284-1.7276 4.2335-2.5115 4.2335s-1.9475 1.7585-2.5858 3.9079c-0.63828 2.1493-1.7939 3.9079-2.5681 3.9079-0.77422 0-2.4495 1.9051-3.7229 4.2335-1.2734 2.3284-2.7839 4.5266-3.3567 4.8848-0.57284 0.35822-4.0251 4.018-7.6717 8.1328-7.333 8.2745-40.075 33.551-43.46 33.551-1.5588 0-1.8042-1.6896-0.89889-6.1874z"/>
  <path d="m268.56 775.01c-0.4021-0.29739-8.6383-1.5223-18.303-2.722-28.153-3.4948-56.988-11.918-83.181-24.299-12.071-5.7054-46.556-30.893-55.256-40.358-3.747-4.0764-14.442-18.145-23.766-31.263-9.3246-13.118-17.915-24.731-19.09-25.805-1.1749-1.0747-3.1922-4.0056-4.4827-6.5131-1.2906-2.5076-2.8963-5.1454-3.5684-5.8618-3.8879-4.1448-56.309-81.611-56.309-83.211 0-3.6735 46.357-20.348 56.57-20.348 1.7494 0 7.6605 1.2396 13.136 2.7548 12.013 3.3242 21.598 10.069 28.887 20.329 2.9418 4.1404 6.0744 8.4072 6.9614 9.4819 0.88699 1.0747 4.2986 6.0572 7.5813 11.072 6.8144 10.411 30.24 43.997 51.251 73.481 11.554 16.213 16.727 21.975 26.898 29.96 13.832 10.859 30.175 18.495 50.372 23.536 10.864 2.7113 14.048 2.8958 39.628 2.2962 28.608-0.67055 39.31-2.3451 39.21-6.1352-0.0289-1.0967-4.8405-4.0224-10.693-6.5016-25.963-10.999-53.928-32.796-71.211-55.505-6.505-8.547-14.107-18.363-16.892-21.814s-5.0649-6.742-5.0649-7.3139c0-1.0986-21.596-32.67-29.911-43.728-2.6938-3.5822-14.204-19.962-25.578-36.398-14.892-21.521-20.225-30.418-19.057-31.788 0.89264-1.0466 11.387-5.672 23.322-10.279 26.049-10.055 34.486-10.894 50.244-4.9975 15.962 5.9731 11.731 0.75099 79.206 97.749 22.366 32.152 25.874 36.162 42.305 48.359 9.3822 6.9646 16.126 10.571 27.414 14.66 8.2338 2.9827 17.403 5.7657 20.377 6.1844 5.2163 0.73467 5.5098 0.52361 8.3659-6.0171 2.1692-4.9677 2.96-11.442 2.96-24.234 0-17.34-0.0473-17.544-7.1354-30.788-3.9245-7.3326-11.35-19.194-16.5-26.358s-17.929-25.336-28.395-40.381c-19.478-27.999-65.417-93.015-69.031-97.697-1.1058-1.4329-3.9979-5.8292-6.4269-9.7697-2.4291-3.9404-9.2141-13.612-15.078-21.493-5.8638-7.8809-11.598-16.087-12.742-18.237-1.1443-2.1493-4.8135-7.718-8.1536-12.375-28.017-39.061-53.218-76.456-56.621-84.019-2.2568-5.0151-5.1983-11.463-6.5367-14.329-1.3384-2.8658-3.0202-12.098-3.7373-20.516-3.0828-36.19 3.7684-62.139 23.301-88.253 10.799-14.438 18.124-21.455 38.078-36.473l16.441-12.375 0.64077 4.1734c0.35241 2.2953-0.18532 5.315-1.195 6.7103-1.0097 1.3953-3.2367 8.31-4.949 15.366-3.6872 15.194-4.1602 58.555-0.82214 75.355 2.5432 12.8 12.378 37.422 17.745 44.426 1.0403 1.3577 3.9756 6.2787 6.5227 10.936 2.5472 4.6569 5.2472 9.0532 6.0001 9.7697 0.75286 0.71644 7.3424 9.8022 14.643 20.191 28.684 40.813 44.619 63.292 46.632 65.783 1.1584 1.4329 4.0635 5.8292 6.4557 9.7697 2.3922 3.9404 9.1501 13.612 15.018 21.493 5.8675 7.8809 11.594 16.087 12.725 18.237 1.1315 2.1493 4.7889 7.718 8.1275 12.375 20.016 27.92 43.06 60.6 61.998 87.927 11.917 17.195 23.399 33.315 25.517 35.822 9.4938 11.243 19.882 34.674 23.968 54.059 4.1328 19.608 4.1282 23.857-0.0468 43.782-8.0467 38.403-28.694 66.058-69.981 93.731-28.635 19.193-64.596 31.512-104.06 35.647-19.756 2.0701-43.657 3.5345-44.731 2.7406z"/>
 </g>
 <path d="m246.68 771.91c-51.579-7.8989-88.493-24.037-124.77-54.545-6.5983-5.5496-25.948-27.275-25.948-29.134 0-0.44204-5.4611-8.2752-12.136-17.407-6.6747-9.1318-14.84-20.557-18.145-25.389-12.025-17.583-35.552-51.657-46.92-67.955-13.766-19.735-15.355-22.51-13.788-24.076 2.3932-2.3932 35.258-14.499 45.62-16.805 10.139-2.2557 11.233-2.2602 20.465-0.0837 18.335 4.3224 25.359 10.465 44.95 39.307 3.5348 5.204 10.312 14.936 15.062 21.627 4.7491 6.6909 12.382 17.664 16.962 24.386 14.005 20.551 27.215 38.802 33.225 45.903 13.244 15.648 35.534 29.346 58.696 36.07 9.9485 2.8882 13.276 3.1274 43.219 3.1077 27.688-0.0183 33.198-0.36062 37.607-2.3371 2.8414-1.2737 4.8319-2.8566 4.4233-3.5177-0.40855-0.66103-7.741-4.6311-16.294-8.8223-10.51-5.1501-21.689-12.238-34.484-21.863-18.263-13.739-19.494-14.985-34.83-35.25-8.7436-11.554-16.506-21.955-17.249-23.113-8.2229-12.808-16.604-25.109-25.006-36.705-5.5758-7.6945-15.308-21.487-21.627-30.651-6.3192-9.1633-15.967-23.137-21.439-31.054-5.4723-7.9162-9.4261-14.861-8.786-15.433 1.5158-1.3538 22.307-9.6745 37.213-14.893 14.815-5.1863 24.334-5.3993 36.053-0.80674 12.767 5.0034 16.457 7.801 24.497 18.572 4.0635 5.4436 8.4735 10.986 9.7998 12.316 1.3264 1.33 2.4116 2.8636 2.4116 3.4082s8.7886 13.446 19.53 28.671c10.742 15.224 24.682 35.284 30.978 44.577 20.878 30.814 39.619 46.086 68.441 55.771 5.5758 1.8736 12.35 3.7922 15.053 4.2636 4.6857 0.81698 5.049 0.60081 7.7723-4.6238 2.5249-4.8441 2.8568-7.7597 2.8568-25.097v-19.616l-4.8813-9.0661c-5.2751-9.7975-14.716-24.362-26.905-41.507-4.2283-5.9475-8.9026-12.79-10.387-15.207-1.4848-2.4162-3.2069-4.393-3.8268-4.393s-1.5121-1.2129-1.9826-2.6954c-0.47051-1.4825-1.576-3.4593-2.4566-4.393s-5.743-7.7803-10.805-15.215-12.057-17.528-15.545-22.43c-3.4871-4.9019-13.794-19.541-22.905-32.531-9.1107-12.99-17.644-24.794-18.962-26.232s-4.0113-5.3504-5.9842-8.6958-8.1427-12.469-13.711-20.275c-12.747-17.871-10.305-14.384-46.017-65.713-16.611-23.875-32.158-47.598-34.55-52.716-2.3911-5.1187-5.1987-11.131-6.239-13.362-3.655-7.8359-5.2005-19.103-5.1914-37.848 9e-3 -18.863 1.7589-31.278 5.3888-38.236 1.0521-2.0167 1.9167-4.3407 1.9213-5.1643 0.0153-2.7558 9.5862-19.912 16.098-28.856 3.5423-4.8654 10.343-12.712 15.113-17.437 9.4754-9.3861 37.6-31.284 40.18-31.284 2.3602 0 1.9641 4.7629-0.93364 11.226-1.3984 3.1188-3.8744 12.438-5.5021 20.71-2.5236 12.824-2.8684 18.2-2.3406 36.496 0.68903 23.885 2.2269 35.12 6.4518 47.139 3.1108 8.849 11.884 27.978 13.329 29.061 0.49575 0.37172 3.2575 4.9337 6.1371 10.138 2.8797 5.204 7.4059 12.237 10.058 15.629 5.9388 7.5944 7.8668 10.257 16.09 22.219 3.5774 5.204 14.009 20.106 23.181 33.117s19.129 27.304 22.126 31.765c2.9972 4.4606 9.8634 14.193 15.258 21.627 5.3949 7.4343 11.049 15.342 12.564 17.572 1.5155 2.2303 6.5643 9.6723 11.22 16.538 12.899 19.023 70.623 101.33 82.535 117.68 5.7974 7.9586 13.919 21.161 18.047 29.339 6.5319 12.938 8.0022 17.383 11.323 34.235l3.8162 19.366-3.7439 18.481c-3.8848 19.177-10.494 35.796-19.369 48.705-30.229 43.967-88.106 76.017-150.38 83.272-30.436 3.5458-49.158 3.5822-71.64 0.13934z" fill="#e6e6e6" stroke-width="1.3517"/>
 <path d="m550.14 683.24c0-1.5107 0.9445-5.0073 2.0989-7.7702 6.8761-16.457 10.951-47.332 8.9152-67.544-2.4414-24.235-7.5007-42.244-16.68-59.372-9.8502-18.381-12.168-22.088-24.967-39.927-7.3138-10.194-19.685-27.779-27.491-39.078-7.8061-11.299-16.93-24.248-20.275-28.775-3.3454-4.5273-7.9074-11.109-10.138-14.626-2.2303-3.5172-9.2254-13.473-15.545-22.124-6.3192-8.6512-12.621-17.635-14.004-19.963-1.3832-2.3286-8.3468-12.445-15.475-22.482-18.293-25.757-49.782-70.81-56.212-80.426-2.9829-4.4606-6.2118-8.5966-7.1754-9.1911-0.96358-0.59452-1.7689-1.811-1.7895-2.7034-0.0207-0.89235-4.6061-7.7051-10.19-15.139-15.266-20.325-24.303-39.25-28.7-60.1-1.9654-9.3205-3.5176-19.683-3.4492-23.029 0.25075-12.271 6.6712-36.679 13.335-50.694 3.5332-7.4312 6.8025-13.815 7.265-14.187 0.46251-0.37172 3.4236-4.1486 6.5802-8.3931 13.866-18.644 40.465-39.793 65.969-52.451 8.9673-4.4506 16.875-8.0958 17.572-8.1004 0.69737-0.0046 3.0927-0.97664 5.323-2.1601 8.4982-4.5095 40.475-12.064 59.475-14.051 51.897-5.4274 96.544 1.381 143 21.807 18.725 8.2323 47.15 28.295 60.427 42.65 7.7568 8.3864 16.22 18.731 16.22 19.825 0 0.72847 20.286 29.228 25.156 35.342 3.4342 4.311 12.075 16.994 18.774 27.555 2.2303 3.5164 9.2253 13.584 15.545 22.373 14.245 19.812 32.441 46.763 32.441 48.05 0 2.1578-34.317 15.254-47.627 18.176-10.193 2.2375-10.718 2.223-20.951-0.57919-18.271-5.003-24.304-10.428-44.257-39.799-3.0606-4.5051-9.4525-13.665-14.204-20.356-4.7517-6.6909-12.022-17.082-16.157-23.092-21.86-31.773-30.354-43.699-34.917-49.022-6.8015-7.9346-24.971-21.516-34.103-25.491-4.0889-1.78-9.2591-4.0974-11.489-5.1497-10.936-5.1598-21.264-6.5411-52.539-7.0266-25.106-0.38976-32.278-0.08275-38.185 1.6347-4.1615 1.2098-7.2738 2.8954-7.2738 3.9395 0 1.0037 3.6312 3.1829 8.0692 4.8427 10.659 3.9862 30.232 16.022 47.169 29.004 13.486 10.337 20.12 17.585 35.326 38.593 4.0889 5.6492 8.8258 12.067 10.526 14.261 1.7006 2.1944 6.9082 9.7684 11.572 16.831 4.6641 7.0626 12.253 18.011 16.864 24.331 4.6111 6.3192 12.71 17.876 17.998 25.682 5.2877 7.806 12.784 18.451 16.657 23.655 6.7609 9.0825 16.946 24.47 16.946 25.602 0 0.84024-33.34 13.691-43.735 16.857-11.51 3.5062-16.78 3.521-27.763 0.0784-14.23-4.4604-18.537-7.66-29-21.544-5.3161-7.054-10.882-14.769-12.369-17.144-5.2609-8.403-33.481-48.505-36.477-51.836-1.6719-1.8586-4.6651-6.1164-6.6516-9.4619-14.752-24.844-31.473-42.671-50.784-54.144-9.6467-5.731-29.398-13.085-38.335-14.274l-5.6254-0.7481-2.6777 6.535c-2.2512 5.4941-2.6626 9.5494-2.5825 25.459l0.0952 18.924 5.8254 10.138c5.5364 9.6347 10.347 16.88 26.823 40.4 3.9642 5.659 8.4342 12.266 9.9333 14.682s3.2328 4.393 3.8527 4.393 1.5121 1.2129 1.9826 2.6954c0.47051 1.4825 1.576 3.4593 2.4566 4.393 0.88059 0.9337 5.1308 6.8679 9.4449 13.187 4.3141 6.3192 11.309 16.396 15.545 22.393 4.2354 5.9967 14.557 20.706 22.938 32.687 8.3804 11.981 17.2 24.196 19.6 27.144 2.3994 2.948 6.0506 8.3114 8.114 11.919 3.488 6.0979 9.9129 15.294 17.03 24.375 1.6426 2.096 4.0257 5.4306 5.2956 7.4103 4.7058 7.3355 19.273 28.412 42.449 61.418 13.103 18.66 25.71 38.125 28.015 43.254 2.3054 5.1295 5.1527 11.145 6.3274 13.369 1.1747 2.2232 3.0742 11.347 4.2211 20.275 4.9893 38.839-5.2364 71.073-32.07 101.09-9.4844 10.611-42.859 37.469-46.559 37.469-0.41251 0-0.75002-1.2361-0.75002-2.7468z" fill="#e6e6e6" stroke-width="1.3517"/>
</svg>